<svg xmlns="http://www.w3.org/2000/svg" xmlns:xlink="http://www.w3.org/1999/xlink" viewBox="0 0 320.1 111.01"><defs><style>.cls-1{fill:url(#Orange_Yellow);}.cls-2{fill:url(#Orange_Yellow-2);}.cls-3{fill:url(#Orange_Yellow-3);}.cls-4{fill:url(#Orange_Yellow-4);}.cls-5{fill:url(#Orange_Yellow-5);}.cls-11,.cls-6{stroke-miterlimit:10;}.cls-6{stroke-width:9.14px;fill:url(#Orange_Yellow-6);stroke:url(#Orange_Yellow-7);}.cls-7{fill:url(#Orange_Yellow-8);}.cls-8{fill:url(#Orange_Yellow-9);}.cls-9{fill:url(#Orange_Yellow-10);}.cls-10{fill:url(#Orange_Yellow-11);}.cls-11{stroke-width:11.05px;fill:url(#Orange_Yellow-12);stroke:url(#Orange_Yellow-13);}.cls-12{font-size:20px;fill:#4253a0;font-family:InputSansNarrow-Regular, Input Sans Narrow;}.cls-13{letter-spacing:-0.04em;}</style><linearGradient id="Orange_Yellow" x1="7.13" y1="8.32" x2="56.65" y2="8.32" gradientTransform="translate(40.21 -23.57) rotate(90)" gradientUnits="userSpaceOnUse"><stop offset="0" stop-color="#ffef26"/><stop offset="0.02" stop-color="#ffea21"/><stop offset="0.1" stop-color="#fed70f"/><stop offset="0.19" stop-color="#fdcc04"/><stop offset="0.28" stop-color="#fdc800"/><stop offset="0.67" stop-color="#f18f34"/><stop offset="0.89" stop-color="#e95f32"/><stop offset="1" stop-color="#e3312d"/></linearGradient><linearGradient id="Orange_Yellow-2" x1="7.13" y1="28.93" x2="56.65" y2="28.93" gradientTransform="translate(60.82 -2.96) rotate(90)" xlink:href="#Orange_Yellow"/><linearGradient id="Orange_Yellow-3" x1="7.13" y1="49.18" x2="56.65" y2="49.18" gradientTransform="translate(81.07 17.29) rotate(90)" xlink:href="#Orange_Yellow"/><linearGradient id="Orange_Yellow-4" x1="73.99" y1="32.37" x2="84.14" y2="32.37" gradientTransform="translate(158.13 64.75) rotate(-180)" xlink:href="#Orange_Yellow"/><linearGradient id="Orange_Yellow-5" x1="89.38" y1="51.1" x2="124.29" y2="51.1" gradientTransform="translate(157.94 -55.74) rotate(90)" xlink:href="#Orange_Yellow"/><linearGradient id="Orange_Yellow-6" x1="130.72" y1="31.92" x2="181.58" y2="31.92" gradientTransform="matrix(1, 0, 0, 1, 0, 0)" xlink:href="#Orange_Yellow"/><linearGradient id="Orange_Yellow-7" x1="126.15" y1="31.92" x2="186.15" y2="31.92" gradientTransform="matrix(1, 0, 0, 1, 0, 0)" xlink:href="#Orange_Yellow"/><linearGradient id="Orange_Yellow-8" x1="147.66" y1="32.24" x2="164.85" y2="32.24" gradientTransform="matrix(1, 0, 0, 1, 0, 0)" xlink:href="#Orange_Yellow"/><linearGradient id="Orange_Yellow-9" x1="198.98" y1="28.49" x2="209.13" y2="28.49" gradientTransform="translate(408.11 56.99) rotate(-180)" xlink:href="#Orange_Yellow"/><linearGradient id="Orange_Yellow-10" x1="201.61" y1="28.96" x2="253.41" y2="28.96" gradientTransform="matrix(1, 0, 0, 1, 0, 0)" xlink:href="#Orange_Yellow"/><linearGradient id="Orange_Yellow-11" x1="244.37" y1="25.8" x2="254.52" y2="25.8" gradientTransform="matrix(1, 0, 0, 1, 0, 0)" xlink:href="#Orange_Yellow"/><linearGradient id="Orange_Yellow-12" x1="271.12" y1="30.35" x2="315.1" y2="30.35" gradientTransform="matrix(1, 0, 0, 1, 0, 0)" xlink:href="#Orange_Yellow"/><linearGradient id="Orange_Yellow-13" x1="265.79" y1="28.75" x2="320.1" y2="28.75" gradientTransform="matrix(1, 0, 0, 1, 0, 0)" xlink:href="#Orange_Yellow"/></defs><g id="Layer_2" data-name="Layer 2"><g id="Layer_1-2" data-name="Layer 1"><rect class="cls-1" x="26.81" y="-16.44" width="10.15" height="49.53" transform="translate(23.57 40.21) rotate(-90)"/><rect class="cls-2" x="26.81" y="4.16" width="10.15" height="49.53" transform="translate(2.96 60.82) rotate(-90)"/><rect class="cls-3" x="26.81" y="24.42" width="10.15" height="49.53" transform="translate(-17.29 81.07) rotate(-90)"/><rect class="cls-4" x="73.99" y="7.61" width="10.15" height="49.53" transform="translate(158.13 64.75) rotate(180)"/><rect class="cls-5" x="102.21" y="33.65" width="9.26" height="34.91" transform="translate(55.74 157.94) rotate(-90)"/><circle class="cls-6" cx="156.15" cy="31.92" r="25.43"/><circle class="cls-7" cx="156.25" cy="32.24" r="8.6"/><rect class="cls-8" x="198.98" y="3.73" width="10.15" height="49.53" transform="translate(408.11 56.99) rotate(180)"/><polyline class="cls-9" points="241.57 54.18 201.61 9.74 208.28 3.75 253.41 53.35"/><polyline class="cls-10" points="244.37 40.99 244.37 1.03 254.52 1.03 254.52 50.56"/><polyline class="cls-11" points="271.13 55.17 284.43 5.53 291.95 5.53 315.1 55.17"/><text class="cls-12" transform="translate(0 92.09)">Innov<tspan class="cls-13" x="58.07" y="0">a</tspan><tspan x="70.84" y="0">tion with a purpose</tspan></text></g></g></svg>