<svg xmlns="http://www.w3.org/2000/svg" xmlns:xlink="http://www.w3.org/1999/xlink" viewBox="0 0 314.36 105.91"><defs><style>.cls-1{fill:url(#linear-gradient);}.cls-2{fill:url(#linear-gradient-2);}.cls-3{fill:url(#linear-gradient-3);}.cls-4{fill:url(#linear-gradient-4);}.cls-5{fill:url(#linear-gradient-5);}.cls-11,.cls-6{stroke-miterlimit:10;}.cls-6{stroke-width:9.14px;fill:url(#linear-gradient-6);stroke:url(#Fading_Sky);}.cls-7{fill:url(#New_Gradient_Swatch_1);}.cls-8{fill:url(#linear-gradient-7);}.cls-9{fill:url(#linear-gradient-8);}.cls-10{fill:url(#linear-gradient-9);}.cls-11{stroke-width:11.05px;fill:url(#linear-gradient-10);stroke:url(#Fading_Sky-2);}.cls-12{font-size:20px;fill:#e566a1;font-family:InputSansNarrow-Regular, Input Sans Narrow;}.cls-13{letter-spacing:-0.04em;}</style><linearGradient id="linear-gradient" x1="1.38" y1="8.32" x2="50.91" y2="8.32" gradientTransform="translate(34.47 -17.83) rotate(90)" gradientUnits="userSpaceOnUse"><stop offset="0" stop-color="#58aed8"/><stop offset="0.07" stop-color="#52abd6"/><stop offset="0.16" stop-color="#42a1d1"/><stop offset="0.25" stop-color="#2891c9"/><stop offset="0.36" stop-color="#057cbe"/><stop offset="0.66" stop-color="#057cbe"/><stop offset="1" stop-color="#2a3186"/></linearGradient><linearGradient id="linear-gradient-2" x1="1.38" y1="28.93" x2="50.91" y2="28.93" gradientTransform="translate(55.07 2.78) rotate(90)" xlink:href="#linear-gradient"/><linearGradient id="linear-gradient-3" x1="1.38" y1="49.18" x2="50.91" y2="49.18" gradientTransform="translate(75.33 23.03) rotate(90)" xlink:href="#linear-gradient"/><linearGradient id="linear-gradient-4" x1="68.25" y1="32.37" x2="78.4" y2="32.37" gradientTransform="translate(146.65 64.75) rotate(-180)" xlink:href="#linear-gradient"/><linearGradient id="linear-gradient-5" x1="83.64" y1="51.1" x2="118.55" y2="51.1" gradientTransform="translate(152.2 -49.99) rotate(90)" xlink:href="#linear-gradient"/><linearGradient id="linear-gradient-6" x1="124.98" y1="31.92" x2="175.84" y2="31.92" gradientTransform="matrix(1, 0, 0, 1, 0, 0)" xlink:href="#linear-gradient"/><linearGradient id="Fading_Sky" x1="120.41" y1="31.92" x2="180.41" y2="31.92" gradientUnits="userSpaceOnUse"><stop offset="0" stop-color="#2581c4"/><stop offset="1" stop-color="#2581c4" stop-opacity="0"/></linearGradient><linearGradient id="New_Gradient_Swatch_1" x1="141.91" y1="32.24" x2="159.1" y2="32.24" gradientUnits="userSpaceOnUse"><stop offset="0" stop-color="#f6f6f6" stop-opacity="0"/><stop offset="0.76" stop-color="#ea5175"/></linearGradient><linearGradient id="linear-gradient-7" x1="193.23" y1="28.49" x2="203.39" y2="28.49" gradientTransform="translate(396.62 56.99) rotate(-180)" xlink:href="#linear-gradient"/><linearGradient id="linear-gradient-8" x1="195.87" y1="28.96" x2="247.66" y2="28.96" gradientTransform="matrix(1, 0, 0, 1, 0, 0)" xlink:href="#linear-gradient"/><linearGradient id="linear-gradient-9" x1="238.63" y1="25.8" x2="248.78" y2="25.8" gradientTransform="matrix(1, 0, 0, 1, 0, 0)" xlink:href="#linear-gradient"/><linearGradient id="linear-gradient-10" x1="265.38" y1="30.35" x2="309.35" y2="30.35" gradientTransform="matrix(1, 0, 0, 1, 0, 0)" xlink:href="#linear-gradient"/><linearGradient id="Fading_Sky-2" x1="260.04" y1="28.75" x2="314.36" y2="28.75" xlink:href="#Fading_Sky"/></defs><g id="Layer_2" data-name="Layer 2"><g id="Layer_1-2" data-name="Layer 1"><rect class="cls-1" x="21.07" y="-16.44" width="10.15" height="49.53" transform="translate(17.83 34.47) rotate(-90)"/><rect class="cls-2" x="21.07" y="4.16" width="10.15" height="49.53" transform="translate(-2.78 55.07) rotate(-90)"/><rect class="cls-3" x="21.07" y="24.42" width="10.15" height="49.53" transform="translate(-23.03 75.33) rotate(-90)"/><rect class="cls-4" x="68.25" y="7.61" width="10.15" height="49.53" transform="translate(146.65 64.75) rotate(180)"/><rect class="cls-5" x="96.47" y="33.65" width="9.26" height="34.91" transform="translate(49.99 152.2) rotate(-90)"/><circle class="cls-6" cx="150.41" cy="31.92" r="25.43"/><circle class="cls-7" cx="150.51" cy="32.24" r="8.6"/><rect class="cls-8" x="193.23" y="3.73" width="10.15" height="49.53" transform="translate(396.62 56.99) rotate(180)"/><polyline class="cls-9" points="235.82 54.18 195.87 9.74 202.54 3.75 247.66 53.35"/><polyline class="cls-10" points="238.63 40.99 238.63 1.03 248.78 1.03 248.78 50.56"/><polyline class="cls-11" points="265.38 55.17 278.69 5.53 286.21 5.53 309.35 55.17"/><text class="cls-12" transform="translate(0 87)">Innov<tspan class="cls-13" x="58.07" y="0">a</tspan><tspan x="70.84" y="0">tion with a purpose</tspan></text></g></g></svg>